<svg width="97" height="73" viewBox="0 0 97 73" fill="none" xmlns="http://www.w3.org/2000/svg">
<path d="M47.738 28.8334L58.4064 6.0202L56.3743 3.15152L57.3904 1L61.6699 4.46052V23.9495M58.9144 42.596L57.8984 47.6162L52.2205 50.4848M39.6096 41.8788L38.5936 45.4646L32.8954 49.9177M10.6524 38.2929L10.2846 37.4541M8.04326 42.8976L1 49.7677L4.04813 51.9192L12.4478 45.7251M14.2086 30.2736L7.60428 21.798L4.04813 23.2323L9.81084 36.3738L10.2846 37.4541M14.2086 30.2736V26.8182L17.2567 25.3838L18.7807 33.9899M14.2086 30.2736L17.5262 34.5314M18.7807 36.1414L17.5262 34.5314M53.3262 59.0909C55.0096 59.0909 56.3743 57.1644 56.3743 54.7879C56.3743 53.8631 56.1677 53.0065 55.816 52.305M53.3262 59.0909C51.6428 59.0909 50.2781 57.1644 50.2781 54.7879C50.2781 52.4114 51.6428 50.4848 53.3262 50.4848M53.3262 59.0909H49.7279M53.3262 50.4848H52.2205M53.3262 50.4848C54.3546 50.4848 55.264 51.2037 55.816 52.305M63.2961 23.9495C64.2431 23.9495 65.0107 25.2339 65.0107 26.8182C65.0107 26.8872 65.0092 26.9557 65.0064 27.0235M63.2961 23.9495C62.5396 23.9495 61.8976 24.7692 61.6699 25.9067M63.2961 23.9495H61.6699M46.7219 64.1111C48.4054 64.1111 49.7701 62.1846 49.7701 59.8081C49.7701 59.5637 49.7556 59.3241 49.7279 59.0909M46.7219 64.1111C45.0385 64.1111 43.6738 62.1846 43.6738 59.8081C43.6738 57.4316 45.0385 55.5051 46.7219 55.5051M46.7219 64.1111H36.5615C34.9083 64.1111 33.5625 62.2532 33.5147 59.9358M46.7219 55.5051H42.2842M46.7219 55.5051C48.2323 55.5051 49.4861 57.0558 49.7279 59.0909M42.2842 55.5051L49.6771 51.7699L52.2205 50.4848M42.2842 55.5051L40.3613 56.4766L33.5147 59.9358M33.5147 59.9358L9.63636 72L5.57219 68.4141L6.58824 66.2626L10.1444 67.697L32.8954 49.9177M55.816 52.305C63.1714 52.9157 71.6681 53.5219 81.5764 54.1514C87.2191 54.5099 96 50.5698 96 42.596C96 41.4568 91.8394 37.919 91.6575 36.8586M32.8954 49.9177C22.5091 48.5074 15.7097 46.9201 9.93436 44.8922C8.55257 44.407 7.60428 42.6375 7.60428 40.6274C7.60428 38.977 8.24586 37.5078 9.21886 36.7362L10.2846 37.4541M17.5262 34.5314C31.8266 31.2828 43.5903 29.1399 55.9753 27.8267C57.8555 27.6274 59.75 27.4471 61.6699 27.2851M61.6699 23.9495V27.2851M65.0064 27.0235C70.3469 26.6364 75.9246 26.381 81.9656 26.2375C85.2524 26.1595 88.1736 28.3805 89.9911 31.8384M65.0064 27.0235C63.8844 27.1048 62.773 27.1919 61.6699 27.2851M89.9911 31.8384C88.5925 34.7115 86.1482 35.5679 81.2674 36.8586C80.1451 36.8586 79.2353 38.1429 79.2353 39.7273C79.2353 41.3116 80.1451 42.596 81.2674 42.596C87.2128 41.6182 90.4058 40.9762 91.6575 36.8586M89.9911 31.8384C90.7667 33.3141 91.3413 35.015 91.6575 36.8586M65.5187 41.8788C65.5187 43.4631 64.6089 44.7475 63.4866 44.7475C62.3643 44.7475 61.4545 43.4631 61.4545 41.8788C61.4545 40.2945 62.3643 39.0101 63.4866 39.0101C64.6089 39.0101 65.5187 40.2945 65.5187 41.8788ZM73.6471 41.8788C73.6471 43.4631 72.7373 44.7475 71.615 44.7475C70.4927 44.7475 69.5829 43.4631 69.5829 41.8788C69.5829 40.2945 70.4927 39.0101 71.615 39.0101C72.7373 39.0101 73.6471 40.2945 73.6471 41.8788ZM26.9091 41.8788C26.9091 43.4631 25.9993 44.7475 24.877 44.7475C23.7547 44.7475 22.8449 43.4631 22.8449 41.8788C22.8449 40.2945 23.7547 39.0101 24.877 39.0101C25.9993 39.0101 26.9091 40.2945 26.9091 41.8788ZM35.0374 41.8788C35.0374 43.4631 34.1276 44.7475 33.0053 44.7475C31.8831 44.7475 30.9733 43.4631 30.9733 41.8788C30.9733 40.2945 31.8831 39.0101 33.0053 39.0101C34.1276 39.0101 35.0374 40.2945 35.0374 41.8788Z" stroke="black"/>
</svg>
