<svg width="73" height="83" viewBox="0 0 73 83" fill="none" xmlns="http://www.w3.org/2000/svg">
<path d="M1 72.5814V11.2414L48.299 1V17.0116M1 72.5814C3.88393 77.022 5.88554 79.2006 10.7931 82H72V17.9535H62.9203M1 72.5814L5.89654 71.5793M62.2069 70.6977V17.0116M62.2069 70.6977L5.89654 71.5793M62.2069 70.6977C62.9429 74.0276 64.1784 75.6235 67.1034 78.2326M62.2069 17.0116V16.3621L48.299 17.0116M62.2069 17.0116C62.4541 17.3646 62.6892 17.6773 62.9203 17.9535M5.89654 71.5793C8.50962 75.4775 10.1307 76.8599 13.2414 78.2326H67.1034M5.89654 71.5793L24.7949 67.5097M67.1034 78.2326V19.8372C65.1371 19.8078 64.08 19.3399 62.9203 17.9535M48.299 17.0116V21.2396M14.4655 73.5233H59.7586M23.0345 75.4178H56.0862M56.3345 66.6382L24.7949 67.5097M56.3345 60.121L48.299 60.343M56.3345 53.6037L48.299 53.8258M56.3345 47.0865L48.299 47.3085M56.3345 40.5693L48.299 40.7913M56.3345 34.052L48.299 34.2741M56.3345 27.5348L48.299 27.7568M56.3345 21.0175L48.299 21.2396M24.7949 67.5097L48.299 62.4483V60.343M48.299 60.343V53.8258M48.299 53.8258V47.3085M48.299 47.3085V40.7913M48.299 40.7913V34.2741M48.299 34.2741V27.7568M48.299 27.7568V21.2396M9.42371 64.3103L40.1102 56.8621V8.91379L9.42371 16.3621V64.3103Z" stroke="black"/>
</svg>
