<svg width="83" height="63" viewBox="0 0 83 63" fill="none" xmlns="http://www.w3.org/2000/svg">
<path d="M4.73846 9.71429H15.2487L14.6181 6.8207C14.3375 5.53272 13.3427 4.63095 12.2025 4.63095H8.32558C7.26619 4.63095 6.3323 5.40948 5.98016 6.55295C5.92619 6.72822 5.87563 6.90548 5.80745 7.07389L4.73846 9.71429ZM4.73846 9.71429C2.67377 9.71429 1 11.665 1 14.0714V19.881M4.73846 9.71429H29.6615L32.7111 2.60571C33.1333 1.62163 33.9963 1 34.9403 1H58.0289C58.9729 1 59.8359 1.62163 60.2581 2.60571L63.3077 9.71429H67.0462M1 19.881V57.6429M1 19.881H18.9871M82 19.881V14.0714C82 11.665 80.3262 9.71429 78.2615 9.71429H67.0462M82 19.881V57.6429M82 19.881H57.6197M1 57.6429C1 60.0492 2.67377 62 4.73846 62H78.2615C80.3262 62 82 60.0492 82 57.6429M1 57.6429H39.6778M82 57.6429H53.1273M67.0462 9.71429H77.5563L76.8267 6.73771C76.521 5.4907 75.543 4.63095 74.4302 4.63095H70.0794C68.9666 4.63095 67.8928 5.5625 67.5871 6.80952L67.0462 9.71429ZM40.1717 6.80952L53.2563 6.8207M23.9717 19.881C23.9717 21.4852 22.8559 22.7857 21.4794 22.7857C20.103 22.7857 18.9871 21.4852 18.9871 19.881M23.9717 19.881C23.9717 18.2767 22.8559 16.9762 21.4794 16.9762C20.103 16.9762 18.9871 18.2767 18.9871 19.881M23.9717 19.881H35.1853M35.1853 19.881C30.6462 23.8557 27.7102 30.183 27.7102 37.3095C27.7102 46.5786 32.6769 54.4957 39.6778 57.6429M35.1853 19.881C38.3097 17.1451 42.1937 15.5238 46.4025 15.5238C50.6114 15.5238 54.4953 17.1451 57.6197 19.881M57.6197 19.881C62.1588 23.8557 65.0948 30.183 65.0948 37.3095C65.0948 46.5786 60.1281 54.4957 53.1273 57.6429M53.1273 57.6429C51.0405 58.5809 48.773 59.0952 46.4025 59.0952C44.032 59.0952 41.7645 58.5809 39.6778 57.6429M54.681 31.0961C55.3925 32.3948 55.8548 33.7958 56.0823 35.2229C56.8022 39.7394 55.1705 44.5179 51.6443 47.1423C50.6136 47.9094 49.5078 48.4279 48.3786 48.7112M43.866 48.6232C44.4006 48.7785 44.9459 48.8824 45.496 48.9334M27.7102 9.71429L27.0797 6.8207C26.799 5.53272 25.8042 4.63095 24.664 4.63095H20.7871C19.6469 4.63095 18.6522 5.53272 18.3715 6.82069L17.741 9.71429H27.7102ZM58.864 37.3095C58.864 45.3308 53.2848 51.8333 46.4025 51.8333C39.5202 51.8333 33.941 45.3308 33.941 37.3095C33.941 29.2882 39.5202 22.7857 46.4025 22.7857C53.2848 22.7857 58.864 29.2882 58.864 37.3095Z" stroke="black"/>
</svg>
