<svg width="83" height="72" viewBox="0 0 83 72" fill="none" xmlns="http://www.w3.org/2000/svg">
<path d="M79.42 18.5072C79.42 18.5072 82.5 59.8636 82.5 61.4545C82.5 63.0455 77.66 63.3396 74.8832 61.4545M79.42 18.5072C79.42 14.114 62.3692 10.5527 41.3359 10.5527C39.8545 10.5527 38.3928 10.5703 36.9554 10.6047M79.42 18.5072C79.42 22.8068 63.0883 26.3096 42.6752 26.4569M12.4169 59.0682L13.1869 37.5909M12.4169 59.0682C11.9502 59.4124 11.4398 59.7301 10.9019 60.0203M12.4169 59.0682L10.9019 60.0203M12.4169 59.0682C13.4706 60.1519 14.4711 61.0919 15.472 61.8588M45.9393 61.4545C39.6989 66.5806 36.0216 66.4784 29.8853 61.4545M45.9393 61.4545V36M45.9393 61.4545C50.7835 64.6414 53.803 64.9869 58.1262 62.7734M29.8853 61.4545V44.75M29.8853 61.4545C27.8978 62.5484 26.1649 63.2868 24.6122 63.7106M59.6495 43.1591L60.4112 61.4545M60.4112 61.4545C59.6036 61.9644 58.8468 62.4045 58.1262 62.7734M60.4112 61.4545L58.1262 62.7734M60.4112 61.4545C60.6702 61.6361 60.9239 61.8097 61.1729 61.9756M74.8832 61.4545L73.3598 40.7727M74.8832 61.4545C73.7881 62.2906 72.7855 62.9546 71.8365 63.4502M29.8853 40.7727L29.9439 43.1591M10.9019 60.0203V71H15.472V61.8588M10.9019 60.0203C6.76437 62.2527 1 62.8624 1 61.4545C1 60.1276 2.58964 31.1319 3.11718 21.5459M15.472 61.8588C17.3784 63.3195 19.2861 64.1519 21.5654 64.1521M21.5654 64.1521V67.8182H24.6122V63.7106M21.5654 64.1521C22.5086 64.1522 23.5154 64.0099 24.6122 63.7106M58.1262 62.7734V67.8182H61.1729V61.9756M61.1729 61.9756C63.503 63.5278 65.4127 64.3916 67.2664 64.5337M67.2664 64.5337V71H71.8365V63.4502M67.2664 64.5337C68.7624 64.6485 70.222 64.2931 71.8365 63.4502M29.1822 20.0909H18.5187C17.6774 20.0909 16.9953 19.3786 16.9953 18.5V13.7273C16.9953 12.8486 17.6774 12.1364 18.5187 12.1364H24.6122C25.4535 12.1364 26.1355 12.8486 26.1355 13.7273V15.3182C26.1355 16.1968 25.4535 16.9091 24.6122 16.9091H21.5654C20.7241 16.9091 20.0421 16.1968 20.0421 15.3182V13.7273M29.1822 20.0909C29.1921 20.0182 29.2015 19.9457 29.2106 19.8733M29.1822 20.0909C29.206 20.1263 29.2291 20.1613 29.2516 20.1959M29.1822 12.1364C29.1822 12.5961 29.3516 13.9295 29.3967 15.6966M29.1822 12.1364H36.7991M29.1822 12.1364C29.1822 11.7288 29.1089 11.3392 28.9752 10.981C28.5324 9.79494 27.4279 8.95455 26.1355 8.95455H24.6122M36.7991 12.1364C37.4055 13.0414 37.6068 13.6572 37.2474 14.5137M36.7991 12.1364C36.8693 11.6174 36.9201 11.1048 36.9554 10.6047M27.6589 5.77273V7.36364C27.6589 8.24227 28.3409 8.95455 29.1822 8.95455H32.229C33.0703 8.95455 33.7523 8.24227 33.7523 7.36364V5.77273C33.7523 4.89409 33.0703 4.18182 32.229 4.18182H26.1355C25.2942 4.18182 24.6122 4.89409 24.6122 5.77273V8.95455M7.46692 16.4952L13.9687 11.7691M37.5607 22.4773L32.4196 15.8489M14.7872 9.94404C13.8941 8.84835 12.5974 8.11253 11.1146 7.99967C8.99332 7.83821 7.07161 8.996 6.08722 10.8073L4.81581 10.7105L3.66858 16.2061L2.90891 16.1483L1.76168 21.6439L3.11718 21.5459M14.7872 9.94404C15.3423 9.33451 16.1263 8.95455 16.9953 8.95455H21.5654M14.7872 9.94404C14.3435 10.4313 14.0461 11.0652 13.9687 11.7691M13.9687 11.7691C13.9554 11.8896 13.9486 12.0121 13.9486 12.1364L13.9153 12.987L13.9486 17.9901M13.9486 17.9901C13.5556 18.3015 13.1208 18.5568 12.6558 18.7456L12.5631 20.0734L7.94975 20.5198L7.9023 21.1998L5.77187 21.3587M13.9486 17.9901V20.0909C13.9486 21.8302 15.3348 23.139 16.9953 23.2727C20.7123 23.5721 28.4721 24.3368 29.1822 23.2727C29.5452 22.7289 29.7417 22.2929 29.7943 21.8882M21.5654 8.95455V4.18182C21.5654 2.42455 22.9295 1 24.6122 1H33.7523C35.435 1 36.7991 2.42455 36.7991 4.18182C36.7991 4.8671 37.1753 7.49413 36.9554 10.6047M21.5654 8.95455H24.6122M29.3967 15.6966C29.4131 16.3404 29.413 17.0418 29.3823 17.7794M29.3967 15.6966C29.7294 15.719 30.0633 15.7401 30.3952 15.7593M29.3823 17.7794C29.3542 18.4525 29.3006 19.1559 29.2106 19.8733M29.3823 17.7794C29.5849 17.0299 29.934 16.3446 30.3952 15.7593M29.2106 19.8733C29.2213 19.9818 29.235 20.0894 29.2516 20.1959M29.2516 20.1959C29.6663 20.8335 29.8667 21.3311 29.7943 21.8882M29.7943 21.8882C30.3308 22.9511 31.1868 23.8108 32.229 24.3278V25.6591L37.3059 26.4165M32.4196 15.8489C34.6518 15.9103 36.4722 15.8079 36.7991 15.3182C36.9966 15.0222 37.1448 14.7581 37.2474 14.5137M32.4196 15.8489C31.7707 15.831 31.0871 15.7994 30.3952 15.7593M37.2474 14.5137C38.1496 15.0774 38.879 15.9116 39.3327 16.9091H40.6075L41.3692 21.6818H42.022L42.6752 26.4569M5.77187 21.3587L3.11718 21.5459M5.77187 21.3587C10.8002 24.0929 22.8479 26.099 37.3059 26.4165M37.3059 26.4165L37.5607 26.4545V27.25L42.8925 28.0455L42.6752 26.4569" stroke="black"/>
</svg>
