<svg width="83" height="83" viewBox="0 0 83 83" fill="none" xmlns="http://www.w3.org/2000/svg">
<path d="M74.4556 77.1405C72.1818 77.1945 70.12 77.6724 68.5546 78.4263L64.6939 80.7839C63.4169 81.5225 61.8772 82 60.2199 82C58.5317 82 56.9655 81.5045 55.6747 80.7422L53.4345 79.2047C51.9869 77.9532 49.5936 77.1354 46.8862 77.1354C45.6965 77.1354 44.5675 77.2933 43.5527 77.5765C42.5379 77.8597 42.9366 77.4251 42.886 77.1354C42.8282 76.8038 43.5527 76.5274 43.5527 76.5274C45.209 75.8447 46.1812 74.8773 46.81 73.487M74.4556 77.1405C74.5986 77.1371 74.7425 77.1354 74.8871 77.1354C76.5568 77.1354 78.1242 77.364 79.4803 77.7643C80.0039 77.9188 80.496 78.099 80.9504 78.3016C81.4047 78.5041 81.5539 78.3516 81.5539 78.3516C81.5539 78.3516 82.5576 78.2303 81.5539 77.7008C80.5503 77.1713 79.7533 76.3914 79.3006 75.4122C79.3006 75.4122 78.8802 74.242 78.6291 73.487C74.3883 60.735 76.2204 39.4351 76.2204 39.4351C76.2204 32.8419 73.6638 27.0658 69.833 23.8609L69.5432 23.6253L71.431 18.3595L71.704 18.2233C73.4916 17.2757 74.6934 15.5101 74.6934 13.4885C74.6934 12.2499 74.2422 11.1073 73.4816 10.1901L73.36 10.0484L75.8331 1.33621L73.36 1L68.6932 8.01588C66.2167 8.01588 64.0907 9.38423 63.1744 11.3372H62.2116C61.2953 9.38423 59.1693 8.01588 56.6928 8.01588L52.026 1L49.5529 1.33621L52.026 10.0484L51.9044 10.1901C51.1438 11.1073 50.6926 12.2499 50.6926 13.4885C50.6926 15.5255 51.9128 17.3025 53.7229 18.2448L53.955 18.3595L56.2301 23.6253L55.9404 23.8609C52.1095 27.0658 49.5529 32.8419 49.5529 39.4351C48.8199 49.7971 50.1969 62.3323 47.2241 72.3575C47.1041 72.7621 46.9679 73.1379 46.81 73.487M74.4556 77.1405C74.4556 77.1405 70.8869 69.8386 70.8869 62.5417M70.8869 60.1095V61.3256M46.81 73.487C52.5208 69.2658 54.6618 65.0243 56.8865 54.6368M27.325 25.75V26.875M27.325 30.25V31.375M22.6 1.22197L10.45 3.21971L13.15 26.8296L12.7052 29.1748M22.6 1.22197L23.95 1H26.65L28 1.22197M22.6 1.22197L23.95 9.54587M22.6 1.22197L19.9 8.10307L23.95 9.54587M28 1.22197L40.15 3.21971L37.45 26.8296L37.8948 29.1748M28 1.22197L30.7 8.10307L26.65 9.54587M28 1.22197L26.65 9.54587M25.3 17.8698L26.65 9.54587M25.3 17.8698L24.85 19.701M25.3 17.8698L23.95 9.54587M26.65 9.54587L30.7 11.7656L23.95 23.3636M23.95 23.3636L24.85 19.701M23.95 23.3636C24.0138 26.7771 24.3754 30.9703 25.3 34.3031M24.85 19.701L19.9 11.7656L23.95 9.54587M25.3 34.3031L26.65 39.4414L30.7 41.8831L35.425 41.4744M25.3 34.3031L23.95 39.4414L19.9 41.8831L15.175 41.4744M12.7052 29.1748L18.55 29.6957L17.2 31.8614L12.2789 31.4228M12.7052 29.1748L12.475 29.1543L11.125 31.32L12.2789 31.4228M12.2789 31.4228L10.45 41.0657L15.175 41.4744M37.8948 29.1748L32.05 29.6957L33.4 31.8614L38.3211 31.4228M37.8948 29.1748L38.125 29.1543L39.475 31.32L38.3211 31.4228M38.3211 31.4228L40.15 41.0657L35.425 41.4744M17.875 79.75H22.6L25.3 44.3143L28 79.75H32.725M17.875 79.75H14.5L13.15 41.2993L15.175 41.4744M17.875 79.75V47.0214M32.725 79.75H36.1L37.45 41.2993L35.425 41.4744M32.725 79.75V48.6457M12.2546 19L7.77191 35.5842M7.77191 35.5842L7.075 38.125L1 37L5.05 20.125L10.45 3.25M7.77191 35.5842L4.375 34.75M38.3454 19L42.8281 35.5842M42.8281 35.5842L43.525 38.125L49.6 37L45.55 20.125L40.15 3.25M42.8281 35.5842L46.225 34.75" stroke="black"/>
</svg>
