<svg width="85" height="89" viewBox="0 0 85 89" fill="none" xmlns="http://www.w3.org/2000/svg">
<path d="M36.3412 5.0499L33.5428 8.5476C32.8609 9.42165 33.5153 10.9275 35.1856 12.7737M36.3412 5.0499C35.8518 5.67716 36.0507 6.62983 36.8194 7.80015C36.9737 8.03514 37.151 8.2789 37.3504 8.53056M36.3412 5.0499C37.0114 4.19075 38.8753 4.06703 41.5056 4.55939M73.9364 25.449L71.1577 28.922C70.4061 29.8854 68.1536 29.9241 65.0026 29.2063M73.9364 25.449L73.9561 25.4243M73.9364 25.449C73.9431 25.4408 73.9496 25.4326 73.9561 25.4243M73.9364 25.449C73.43 26.0662 72.2889 26.2917 70.6794 26.1718C70.1137 26.1297 69.4901 26.0448 68.8159 25.9194M73.9561 25.4243C74.7066 24.4623 73.8381 22.7347 71.7779 20.6304M41.5056 4.55939C44.7634 2.3349 48.9297 1 53.4702 1C63.9025 1 72.3595 8.04687 72.3595 16.7396C72.3595 18.0825 72.1577 19.386 71.7779 20.6304M41.5056 4.55939C39.8685 5.67729 38.4608 7.01985 37.3504 8.53056M71.7779 20.6304C71.1889 22.5606 70.1719 24.3483 68.8159 25.9194M35.1856 12.7737C34.791 14.0407 34.5809 15.3697 34.5809 16.7396C34.5809 18.5793 34.9597 20.3452 35.6558 21.9862M35.1856 12.7737C37.7897 15.6519 42.8627 19.3571 49.1908 22.7847C55.1039 25.9876 60.838 28.2576 65.0026 29.2063M37.3504 8.53056C39.6982 11.4948 45.1 15.5554 51.9892 19.287C58.3987 22.7588 64.598 25.1345 68.8159 25.9194M65.0026 29.2063C61.8122 31.2585 57.8123 32.4793 53.4702 32.4793C45.2457 32.4793 38.2489 28.0994 35.6558 21.9862M35.6558 21.9862L1 68.6221C1.90185 70.0764 2.7636 71.24 3.79841 72.1566M51.3714 32.4793L46.4742 37.9957M37.3793 33.6452C39.791 36.2028 41.7111 37.2101 46.4742 37.9957M46.4742 37.9957L13.5928 75.0346C11.5889 74.9466 9.95194 74.7593 8.57849 74.4516M3.79841 72.1566L1.6996 74.4516C1.6996 74.4516 1.86016 76.7048 3.09881 77.3664M3.79841 72.1566C5.02813 73.2459 6.50225 73.9864 8.57849 74.4516M8.57849 74.4516L6.59682 77.3664C6.59682 77.3664 4.24886 77.9807 3.09881 77.3664M3.09881 77.3664C0.686667 86.5268 8.57849 90.1912 17.7905 86.6936C27.0024 83.1959 43.6758 68.6221 43.6758 68.6221C43.6758 68.6221 60.4334 54.0484 75.8575 64.5415C91.2815 75.0346 80.0551 83.1959 80.0551 83.1959M23.3873 55.7972C23.3873 57.0851 22.1344 58.129 20.5889 58.129C19.0433 58.129 17.7905 57.0851 17.7905 55.7972C17.7905 54.5094 19.0433 53.4654 20.5889 53.4654C22.1344 53.4654 23.3873 54.5094 23.3873 55.7972ZM24.5538 48.6726L26.8868 49.9603C27.5311 50.3159 28.3993 50.169 28.826 49.6322L35.0074 41.8561C35.4341 41.3193 35.2578 40.5959 34.6136 40.2403L32.2805 38.9526C31.6363 38.597 30.7681 38.7439 30.3414 39.2808L24.16 47.0568C23.7332 47.5936 23.9095 48.3171 24.5538 48.6726Z" stroke="black"/>
</svg>
