<svg width="89" height="81" viewBox="0 0 89 81" fill="none" xmlns="http://www.w3.org/2000/svg">
<path d="M4.16664 27.3175C2.28571 28.4426 1 30.714 1 33.3329C1 35.4701 1.85616 37.3758 3.19328 38.616M4.16664 27.3175C4.97002 26.837 5.88199 26.5656 6.84874 26.5656C10.0789 26.5656 12.6975 29.5954 12.6975 33.3329C12.6975 36.173 11.1855 38.6045 9.04202 39.6084M4.16664 27.3175L49.9832 1.49192M49.9832 1.49192C47.8398 2.49583 46.3277 4.92729 46.3277 7.76736C46.3277 11.5049 48.9463 14.5347 52.1765 14.5347C53.2418 14.5347 54.2406 14.2052 55.1008 13.6294M49.9832 1.49192C50.6605 1.17469 51.4009 1 52.1765 1C55.4066 1 58.0252 4.02985 58.0252 7.76736C58.0252 10.2722 56.849 12.4593 55.1008 13.6294M9.04202 39.6084C8.36471 39.9256 7.62436 40.1003 6.84874 40.1003C5.46559 40.1003 4.19458 39.5448 3.19328 38.616M9.04202 39.6084L52.1765 15.2788M55.1008 13.6294L52.1765 15.2788M3.19328 38.616L30.8725 56.9037M52.1765 15.2788L88 34.0849L66.2244 49.7622M52.5223 54.5374C51.7068 54.2327 50.8582 54.2276 50.0995 54.4666M52.5223 54.5374C53.417 54.8717 54.114 55.5077 54.5354 56.2823M52.5223 54.5374L53.8042 50.9648M54.3657 56.0015L57.2293 52.4223C57.9062 50.5356 56.8963 48.4241 54.9737 47.7057C53.051 46.9873 50.9437 47.9341 50.2667 49.8207L50.1882 54.4406L50.0995 54.4666M54.9658 58.4465C54.9353 58.7171 54.8734 58.9878 54.7779 59.254C54.6281 59.6713 54.4084 60.0426 54.1362 60.3601M54.9658 58.4465L59.3725 58.5896M54.9658 58.4465C55.051 57.6917 54.8918 56.9374 54.5354 56.2823M52.3062 61.4934C51.5967 61.6761 50.8198 61.6489 50.0709 61.3691C50.0337 61.3552 49.9968 61.3407 49.9603 61.3258M52.3062 61.4934L53.1903 65.5199M52.3062 61.4934C52.9741 61.3215 53.5822 60.9638 54.051 60.4559M47.9601 59.4316L44.5218 61.3569M47.9601 59.4316C47.6581 58.7918 47.5382 58.0711 47.6409 57.3542M47.9601 59.4316C48.2798 60.109 48.8037 60.6957 49.4837 61.0912M47.6409 57.3542C47.6746 57.1189 47.7322 56.884 47.8153 56.6524C48.0032 56.1288 48.3013 55.6776 48.675 55.3143M47.6409 57.3542L42.8335 55.2367C41.2639 53.9097 41.046 51.6008 42.3466 50.0796C43.6472 48.5583 45.9737 48.4007 47.5433 49.7278L50.0995 54.4666M47.6409 57.3542L42.4832 58.5006C40.7782 59.564 40.3019 61.8169 41.4191 63.5329C42.164 64.677 43.4293 65.2935 44.6953 65.2621M50.0995 54.4666C49.5658 54.6348 49.0767 54.9238 48.675 55.3143M54.5354 56.2823L58.6348 55.2263M54.1362 60.3601C54.1083 60.3926 54.0799 60.4245 54.051 60.4559M54.1362 60.3601L58.9123 62.3654C60.9489 62.504 62.6713 60.9838 62.7597 58.9698C62.8481 56.9559 61.2691 55.211 59.2325 55.0724L58.6348 55.2263M54.051 60.4559L56.8598 64.4512C57.4328 66.4024 56.3115 68.404 54.3554 68.9222C52.3992 69.4404 50.349 68.2791 49.776 66.3279L49.9548 61.4755M49.9603 61.3258C49.794 61.2578 49.635 61.1792 49.4837 61.0912M49.9603 61.3258L49.9548 61.4755M49.4837 61.0912L48.0548 62.8434M48.675 55.3143L45.1478 51.8885M49.3883 58.0931L49.5033 59.0601M50.7252 59.5167L51.5398 59.821M49.2734 57.1261L49.9731 56.4635M50.9026 57.7349L51.5711 58.4467M50.9339 56.3605L51.7485 56.6649M52.5006 59.718L53.4615 59.615M30.7527 57.0137L29.317 53.8721C29.1473 52.3686 30.2041 51.0097 31.6774 50.8365C33.1506 50.6634 34.4824 51.7417 34.6521 53.2452L33.9538 56.6375M29.6427 59.7783L26.2574 60.0654C24.8164 59.7074 23.9328 58.2253 24.2836 56.7549C24.4573 56.0265 24.9014 55.4377 25.4806 55.0724M30.4048 56.5835L27.5277 54.7407C26.8005 54.5601 26.0705 54.7002 25.4806 55.0724M34.271 56.6623L36.7989 54.3468C38.1593 53.7438 39.7408 54.3803 40.3316 55.7683C40.9225 57.1563 40.2989 58.7703 38.9386 59.3732L35.5548 59.6781M35.3206 59.7863L38.2837 61.4813C38.4441 61.6613 38.5766 61.857 38.6815 62.0631M32.937 61.9988L34.3111 65.169C35.309 66.2885 37.0072 66.3704 38.1042 65.3521C39.0249 64.4974 39.2295 63.1394 38.6815 62.0631M32.4217 61.8056L31.6943 65.1916C30.9349 66.4916 29.2868 66.9171 28.0129 66.1423C26.7391 65.3674 26.3219 63.6856 27.0813 62.3856L29.6539 60.122M42.3414 68.3364C42.3414 68.3364 46.3927 67.8342 48.4912 69.059C52.2583 71.2575 51.411 80 51.411 80C51.411 80 42.8753 78.8551 41.6333 74.612C40.9414 72.2482 42.3414 68.3364 42.3414 68.3364ZM42.3414 68.3364L43.8576 70.2863M42.3414 68.3364L40.3316 66.1423M43.8576 70.2863L48.2939 70.8076M43.8576 70.2863L44.8018 71.5006M44.8018 71.5006L44.3718 75.3115M44.8018 71.5006L47.0173 74.3497M47.0173 74.3497L47.9835 76.8391M47.0173 74.3497L49.8486 74.6824M38.7255 69.4935L32.1481 73.3685M38.7255 69.4935C38.7255 69.4935 38.6697 71.6604 37.8915 72.6695C36.4947 74.4809 32.1481 73.3685 32.1481 73.3685M38.7255 69.4935C38.7255 69.4935 36.8585 68.4593 35.6131 68.6424C33.3773 68.9711 32.1481 73.3685 32.1481 73.3685M38.7255 69.4935L40.3316 66.1423M62.5277 52.8166L69.9736 51.2894M62.5277 52.8166C62.5277 52.8166 63.9729 54.4052 65.2104 54.6378C67.4319 55.0554 69.9736 51.2894 69.9736 51.2894M62.5277 52.8166L61.1481 53.4169M62.5277 52.8166C62.5277 52.8166 62.6099 52.5878 62.7589 52.2572M69.9736 51.2894C69.9736 51.2894 68.0232 50.0109 66.2244 49.7622M21.9993 54.3614L14.963 51.4444M21.9993 54.3614C21.9993 54.3614 20.2892 55.6473 19.0308 55.6404C16.7721 55.628 14.963 51.4444 14.963 51.4444M21.9993 54.3614C21.9993 54.3614 21.6525 52.2229 20.746 51.3323C19.1187 49.7337 14.963 51.4444 14.963 51.4444M21.9993 54.3614L25.4806 55.0724M40.3316 66.1423L39.9872 62.9258M39.9872 62.9258L44.1345 65.6659L44.6953 65.2621M39.9872 62.9258L38.6815 62.0631M61.1481 53.4169L62.7589 52.2572M61.1481 53.4169L58.6348 55.2263M62.7589 52.2572C63.0543 51.6017 63.6123 50.5459 64.3125 50.079C64.8433 49.7249 65.5223 49.6651 66.2244 49.7622M49.9548 61.4755L48.0548 62.8434M48.0548 62.8434L46.529 64.7145C45.9608 65.0689 45.328 65.2464 44.6953 65.2621M30.8725 56.9037C30.2059 57.4757 29.8243 58.3672 29.9314 59.3163C30.101 60.8196 31.4329 61.898 32.9061 61.7249C34.019 61.5941 34.8942 60.7866 35.1827 59.7514C35.2761 59.4162 35.308 59.0571 35.2665 58.6893C35.0968 57.186 33.765 56.1076 32.2917 56.2807C31.7485 56.3446 31.2619 56.5696 30.8725 56.9037ZM17.9129 42.1769L54.4314 20.2562M24.3573 46.561L60.8759 24.6403M68.3944 27.9284L33.9538 48.6018M75.9129 31.2165L49.5033 47.0692" stroke="black"/>
</svg>
