<svg width="93" height="89" viewBox="0 0 93 89" fill="none" xmlns="http://www.w3.org/2000/svg">
<path d="M30.757 78.5983L42.3636 86.1891M30.757 78.5983C30.757 78.5983 30.672 82.52 31.9978 84.4134C34.3776 87.8121 42.3636 86.1891 42.3636 86.1891M30.757 78.5983L29.3576 78.1832M30.757 78.5983C30.757 78.5983 31.1327 78.4144 31.7167 78.1832M42.3636 86.1891C42.3636 86.1891 41.0444 80.4525 38.2112 78.1832M16.63 68.6429C15.4275 68.6429 14.3216 69.0615 13.4466 69.7625M16.63 68.6429V63.2076M16.63 68.6429C17.9356 68.6429 19.1274 69.1363 20.0333 69.949M13.5498 69.6831L11.4964 63.446C11.4964 61.8105 12.2426 60.3516 13.4091 59.399M13.5498 69.6831L13.4466 69.7625M13.5498 69.6831L8.71637 61.5101M19.7101 69.6831L21.7635 63.446C21.7635 60.5757 19.4651 58.2492 16.63 58.2492C15.4102 58.2492 14.2898 58.6798 13.4091 59.399M21.6312 72.6623C21.7178 73.0407 21.7636 73.4348 21.7636 73.8398C21.7636 74.4747 21.6511 75.0829 21.4453 75.6453M21.6312 72.6623L27.4279 70.6453M21.6312 72.6623C21.3898 71.6071 20.8308 70.675 20.0617 69.9747M19.5945 78.0831C18.7572 78.6837 17.7343 79.0367 16.63 79.0367C16.5751 79.0367 16.5204 79.0358 16.466 79.0341M19.5945 78.0831L22.6228 83.0415M19.5945 78.0831C20.3828 77.5177 21.0066 76.7329 21.3792 75.8165M12.9814 77.4956L9.40888 81.8019M12.9814 77.4956C12.2902 76.7887 11.798 75.8819 11.597 74.8686M12.9814 77.4956C13.7132 78.244 14.6681 78.7685 15.7368 78.9583M11.597 74.8686C11.531 74.5361 11.4964 74.192 11.4964 73.8398C11.4964 73.0432 11.6735 72.2884 11.9899 71.6137M11.597 74.8686L4.35808 74.4378C1.69795 73.4443 0.337392 70.4561 1.31875 67.7633C2.30011 65.0706 5.25176 63.693 7.91189 64.6865L13.4466 69.7625M11.597 74.8686L5.42547 78.992C3.7046 81.2732 4.13645 84.5344 6.38975 86.2763C8.64305 88.0183 11.8645 87.5814 13.5854 85.3002L15.7368 78.9583M13.4466 69.7625C13.4341 69.7726 13.4216 69.7827 13.4091 69.7929C12.8108 70.2814 12.3231 70.9032 11.9899 71.6137M20.0617 69.9747L25.6048 65.997C28.3177 65.1621 31.185 66.7115 32.0096 69.4576C32.8343 72.2037 31.304 75.1065 28.5912 75.9414L21.4453 75.6453M20.0617 69.9747C20.0523 69.9661 20.0428 69.9575 20.0333 69.949M21.4453 75.6453C21.4242 75.7029 21.4022 75.76 21.3792 75.8165M21.3792 75.8165L24.6827 78.1832M21.3792 75.8165L29.3576 78.1832M16.466 79.0341C16.2181 79.0262 15.9746 79.0005 15.7368 78.9583M16.466 79.0341L18.5602 85.8369C20.2157 88.1673 23.4234 88.6976 25.7252 87.0218C28.0269 85.346 28.5511 82.0987 26.8956 79.7684L24.6827 78.1832M11.9899 71.6137L5.80507 68.7859M14.214 74.984L14.8146 76.2236M16.6165 76.2236H17.8178M13.6133 73.7444L14.214 72.5048M16.0159 73.7444L17.2171 74.3642M15.4152 71.885H16.6165M19.019 75.6038L20.2203 74.984M8.71637 61.5101L3.02584 48.7327M8.71637 61.5101C8.71637 61.5101 4.88577 61.0213 3.23654 59.4114C0.276084 56.5217 3.02584 48.7327 3.02584 48.7327M8.71637 61.5101C8.71637 61.5101 10.8835 58.2637 10.7819 55.9423C10.5995 51.7753 3.02584 48.7327 3.02584 48.7327M13.4091 31.2027V30.5366C13.4091 29.634 13.8361 28.7867 14.5564 28.2596L18.9242 25.0641M13.4091 31.2027L18.9242 34.1551M13.4091 31.2027V59.399M92 31.2027V30.5366C92 29.634 91.573 28.7867 90.8526 28.2596L86.4848 25.0641M92 31.2027V74.6772M92 31.2027L86.4848 34.1551M92 74.6772V75.3784C92 76.9274 90.7654 78.1832 89.2424 78.1832H38.2112M92 74.6772L57.1955 49.8346M48.2136 49.8346L50.3285 48.325C51.7545 47.3072 53.6546 47.3072 55.0806 48.325L57.1955 49.8346M48.2136 49.8346L18.9242 34.1551M48.2136 49.8346L20.0333 69.949M57.1955 49.8346L86.4848 34.1551M18.9242 25.0641V12.2702H36.4113M18.9242 25.0641V34.1551M36.4113 12.2702L51.0943 1.52785C52.0563 0.82405 53.3528 0.824049 54.3148 1.52785L68.9978 12.2702M36.4113 12.2702H68.9978M68.9978 12.2702H86.4848V25.0641M86.4848 25.0641V34.1551M24.6827 78.1832H29.3576M29.3576 78.1832H31.7167M31.7167 78.1832C32.9099 77.7108 34.9729 77.0409 36.4803 77.3377C37.11 77.4616 37.6865 77.763 38.2112 78.1832M25.8182 19.9834H79.5909M40.9848 42.4219H64.4242M25.8182 25.593H79.5909M25.8182 31.2027H79.5909M31.3333 36.8123H75.4545" stroke="black"/>
</svg>
