<svg width="93" height="73" viewBox="0 0 93 73" fill="none" xmlns="http://www.w3.org/2000/svg">
<path d="M5.84853 32.8127L1.21638 17.5101C0.543823 15.2883 1.8818 12.8686 3.98069 12.511L11.7052 11.1949C12.5558 11.05 13.3345 10.5452 13.8798 9.78524L19.1417 2.45247C20.4937 0.568332 23.0119 0.507481 24.3293 2.32711L33.2959 14.7124M5.84853 32.8127C18.1532 29.4318 24.107 25.3346 33.2959 14.7124M5.84853 32.8127L6.80358 35.9677M33.2959 14.7124L35.3046 17.4869M37.4521 58.0032C39.0937 61.2511 42.8166 62.3066 45.7672 60.3607C50.4313 57.285 53.9692 53.5262 54.8859 51.4961C56.108 48.7893 55.4775 47.5419 54.937 46.4727C53.8561 44.3342 52.0374 44.8208 51.6431 45.0808C51.2762 45.3228 50.6272 45.6333 50.3762 46.6291C52.1836 46.15 53.929 48.5631 51.592 50.1043C51.592 50.1043 51.2004 50.6043 49.5944 49.9959C44.7887 48.1754 42.7075 48.1222 40.3626 49.6685C37.412 51.6143 35.8104 54.7554 37.4521 58.0032ZM37.4521 58.0032C39.0937 61.2511 38.0326 65.4614 35.082 67.4072C30.4179 70.4829 25.799 72.1032 23.8015 71.9949C21.1381 71.8504 20.5075 70.603 19.9671 69.5338C18.8862 67.3953 20.1645 65.8396 20.5587 65.5796C20.9257 65.3376 21.4856 64.8509 22.3661 65.1005C21.0992 66.6488 22.0561 69.5819 24.3931 68.0407C24.3931 68.0407 24.968 67.9033 25.3097 66.0106C26.3323 60.3465 27.3325 58.2613 29.6774 56.715C32.628 54.7691 35.8104 54.7554 37.4521 58.0032ZM42.2669 41.2846C42.3454 40.2135 42.1518 39.1153 41.6518 38.1261C40.3087 35.4688 37.2627 34.6052 34.8485 36.1973C32.4344 37.7893 31.5662 41.2341 32.9094 43.8914C34.2525 46.5487 37.2985 47.4123 39.7127 45.8203C41.2282 44.8208 42.1345 43.0912 42.2669 41.2846ZM42.2669 41.2846C42.2669 41.2846 45.9311 42.2379 47.4838 40.6956C49.4083 38.7838 47.6956 33.4277 47.6956 33.4277M6.80358 35.9677C2.58866 40.0548 0.336981 43.51 1.17248 45.1629C2.66491 48.1155 13.4427 44.1994 25.2453 36.4161C37.0479 28.6328 45.406 19.9297 43.9135 16.9771C43.1425 15.4517 39.8932 15.7596 35.3046 17.4869M6.80358 35.9677L7.6472 38.7547C21.1976 35.172 26.9844 31.5948 36.7888 19.5371L35.3046 17.4869M69.4323 22.4671C66.794 25.328 62.7215 20.9497 60.2168 17.9362C57.7121 14.9227 57.7236 14.4152 60.3619 11.5543C63.0002 8.69337 64.1611 7.92953 66.6658 10.943C69.1706 13.9565 72.0706 19.6062 69.4323 22.4671ZM74.2064 27.6645C71.5681 30.5254 75.1847 35.398 77.6894 38.4115C80.1942 41.425 80.6385 41.4382 83.2768 38.5773C85.9151 35.7163 86.6432 34.4318 84.1385 31.4183C81.6337 28.4048 76.8447 24.8035 74.2064 27.6645ZM54.9218 10.1914L62.3262 2.16221C65.1055 1.71749 67.3249 2.44759 69.3658 4.90296C71.4066 7.35834 75.8139 13.4721 78.0211 18.8595C82.6167 21.6567 87.7333 27.0014 89.7742 29.4567C91.815 31.9121 92.3381 34.4816 91.8051 37.6288L84.4006 45.658C82.9675 47.2121 79.5915 47.8998 76.9266 46.5007C73.7036 44.8085 69.1926 38.2885 68.083 35.8607C66.9734 33.4329 67.6651 31.9129 68.2281 29.4788C66.0707 29.9947 64.7058 30.7048 62.6408 29.313C60.5757 27.9213 55.1093 22.4373 53.7971 18.6731C52.7121 15.5606 53.4887 11.7455 54.9218 10.1914Z" stroke="black"/>
</svg>
