<svg width="71" height="93" viewBox="0 0 71 93" fill="none" xmlns="http://www.w3.org/2000/svg">
<path d="M7.02566 25.2172C7.02566 25.0603 7.02782 24.9039 7.03212 24.7479M16.573 14.1568C15.9248 14.1568 15.3287 14.3959 14.8571 14.7965M16.573 14.1568C17.2841 14.1568 17.9326 14.4446 18.4228 14.9177M16.573 14.1568V11.0511M18.2332 14.7511L19.3401 11.1873C19.3401 9.86648 18.5365 8.74717 17.4255 8.36148M19.2688 16.4534C19.1386 15.8504 18.8373 15.3178 18.4228 14.9177M19.2688 16.4534C19.2774 16.4934 19.2853 16.5338 19.2924 16.5745C19.3237 16.7532 19.3401 16.9377 19.3401 17.1262C19.3401 17.489 19.2795 17.8365 19.1685 18.1579M19.2688 16.4534L19.5479 16.3504L22.3933 15.3009M18.1709 19.5507C17.7196 19.8939 17.1682 20.0956 16.573 20.0956C16.5434 20.0956 16.5139 20.0951 16.4846 20.0941M18.1709 19.5507L19.8033 22.384M18.1709 19.5507C18.5958 19.2277 18.9321 18.7793 19.1329 18.2557M14.6063 19.2151L12.6806 21.6757M14.6063 19.2151C14.2337 18.8112 13.9684 18.2931 13.8601 17.7141M14.6063 19.2151C15.0007 19.6427 15.5154 19.9424 16.0915 20.0508M13.8601 17.7141C13.8245 17.524 13.8058 17.3275 13.8058 17.1262C13.8058 16.671 13.9013 16.2398 14.0719 15.8542M13.8601 17.7141L9.9581 17.4679C9.65109 17.3463 9.37619 17.1725 9.13892 16.9593M13.8601 17.7141L10.5335 20.0701C9.60586 21.3736 9.83864 23.2369 11.0532 24.2323C11.9244 24.9462 13.064 25.0196 13.9811 24.5231M14.8571 14.7965L14.9127 14.7511L13.8058 11.1873C13.8058 11.1547 13.8063 11.1222 13.8073 11.0898M14.8571 14.7965C14.5253 15.0782 14.2552 15.4398 14.0719 15.8542M14.8571 14.7965L12.4279 12.4349M18.4228 14.9177L21.3821 12.6666M19.1685 18.1579C19.1572 18.1907 19.1453 18.2233 19.1329 18.2557M19.1685 18.1579L23.0204 18.327C23.524 18.1627 23.9521 17.8582 24.2786 17.4655M19.1329 18.2557L22.1064 20.5137C22.9987 21.8453 22.7162 23.7007 21.4755 24.6582C20.2348 25.6157 18.5057 25.3127 17.6134 23.9812L16.4846 20.0941M16.4846 20.0941C16.3863 20.0908 16.2893 20.082 16.1938 20.068M16.0915 20.0508L15.9886 20.3725M16.0915 20.0508C16.1254 20.0572 16.1595 20.0629 16.1938 20.068M14.0719 15.8542L10.7381 14.2385M15.2707 17.78L15.5944 18.4883M16.5657 18.4883H17.2132M14.9469 17.0717L15.2707 16.3634M16.2419 17.0717L16.8894 17.4258M15.9182 16.0092H16.5657M17.8607 18.1341L18.5082 17.78M23.4242 6.31876L23.0474 5.58694M25.1714 6.00575L25.3723 4.81129L25.4847 4.14346C25.3609 3.33443 24.6086 2.79547 23.8045 2.93953C23.0004 3.08358 22.4489 3.8561 22.5727 4.66514L23.0474 5.58694M22.8724 7.8549L21.0224 8.12592C20.4205 8.01655 19.9795 7.54911 19.8694 6.97856C19.8336 6.79337 19.8327 6.59732 19.8724 6.39912C20.0346 5.59029 20.8123 5.05203 21.6096 5.1969L22.6098 5.75461M23.2247 6.09749L22.6098 5.75461M25.3458 6.00837L26.6842 4.66729C27.4176 4.29413 28.2977 4.58515 28.65 5.31724C29.0024 6.04933 28.6936 6.94526 27.9602 7.31842L26.1114 7.59905M25.9853 7.66563L27.6444 8.48325C28.2145 9.05595 28.2059 9.99784 27.6254 10.5871C27.0449 11.1764 26.1122 11.1899 25.5422 10.6172L24.7239 8.94601M24.4374 8.85886L24.1081 10.7187C23.7184 11.4491 22.8236 11.7359 22.1094 11.3595C21.3951 10.983 21.132 10.0857 21.5216 9.3553L22.8856 8.04083M62.2619 52.7685L61.6716 50.9866C61.6716 50.1665 62.3323 49.5018 63.1474 49.5018C63.3446 49.5018 63.5327 49.5407 63.7047 49.6113M64.0329 52.7685L64.6232 50.9866C64.6232 50.3649 64.2435 49.8325 63.7047 49.6113M61.4855 54.1864L59.6195 54.1268C59.1616 53.9569 58.8376 53.5826 58.7119 53.1445M62.0985 52.5149L60.6411 51.3409C59.8764 51.0571 59.0278 51.4507 58.7457 52.22C58.6325 52.5287 58.6277 52.8509 58.7119 53.1445M64.2046 52.8019L65.3683 51.9716M64.7197 54.5065L65.3344 54.5229L66.586 54.5564C67.3659 54.3179 67.8058 53.4885 67.5687 52.704C67.3316 51.9195 66.5073 51.4768 65.7275 51.7154L65.3683 51.9716M63.7023 57.3835L63.1474 55.5901M63.7023 57.3835C64.0754 57.9054 64.7227 58.1113 65.3038 57.9452M63.7023 57.3835L63.7047 57.6979M64.5851 54.5499L65.3418 55.0998L66.0985 55.6498C66.5744 56.3155 66.4238 57.2432 65.7621 57.722C65.6191 57.8254 65.464 57.8995 65.3038 57.9452M62.8779 55.4535L62.2721 57.2301C61.7774 57.8819 60.8513 58.0067 60.2035 57.509C59.5557 57.0114 59.4316 56.0797 59.9263 55.4279L61.4704 54.3722M8.38877 67.3392L7.79844 65.5574C7.79844 64.7373 8.45918 64.0726 9.27424 64.0726C10.0893 64.0726 10.75 64.7373 10.75 65.5574L10.1597 67.3392M7.61236 68.7572L7.02566 68.7385M8.22535 67.0857L7.02566 66.1193M10.3314 67.3727L11.8543 66.2862C12.5065 66.0867 13.1898 66.3636 13.5347 66.9185M10.8466 69.0773L12.7129 69.1272C13.4927 68.8887 13.9327 68.0594 13.6956 67.2748C13.6568 67.1464 13.6022 67.0271 13.5347 66.9185M10.712 69.1207L12.2254 70.2206C12.7013 70.8863 12.5506 71.814 11.8889 72.2928C11.2272 72.7716 10.3051 72.6201 9.82914 71.9543L9.27425 70.1609M9.0048 70.0243L8.39899 71.8009C8.06502 72.2409 7.53447 72.4407 7.02566 72.3711M7.59731 68.943L7.02566 69.3338M65.1564 65.7914L66.83 65.2394C67.5871 65.279 68.1689 66.025 68.1296 66.9058C68.0903 67.7865 67.4448 68.4685 66.6877 68.4289L65.319 67.8162M65.071 67.7051L65.319 67.8162M63.8847 64.884L64.0297 62.8705C64.2528 62.2639 64.7591 61.8975 65.2912 61.8929M65.3984 65.627L66.5525 64.1088C66.8514 63.2961 66.529 62.3602 65.8323 62.0183C65.6557 61.9315 65.4719 61.8914 65.2912 61.8929M65.0318 67.889L65.3249 68.4243M63.4332 68.3635L63.2971 70.3778C63.365 70.6955 63.5107 70.9664 63.7047 71.17C64.0323 71.5139 64.4978 71.6662 64.96 71.5291C65.1056 71.4859 65.2399 71.4171 65.3604 71.3281M60.4142 69.3348C60.8243 70.0729 61.6736 70.2805 62.3112 69.7983L63.3996 68.216M60.4142 69.3348C60.0041 68.5967 60.1884 67.6075 60.826 67.1253L62.5086 66.6122M60.4142 69.3348L60.3376 71.589V79.2506M62.6477 66.3276L61.0366 65.5873C60.4587 65.0213 60.3882 64.0145 60.8789 63.3385C61.3696 62.6625 62.2358 62.5733 62.8136 63.1393L63.7139 64.8588M55.47 60.9129L53.7402 60.6285C53.0732 60.239 52.8464 59.2943 53.2335 58.5183C53.6206 57.7423 54.4751 57.429 55.1422 57.8185L56.3112 59.2269M56.2546 62.3256L55.3198 64.0738C55.2975 64.096 55.2749 64.1174 55.2518 64.1378M55.1861 60.948L53.539 61.7779C52.9449 62.3711 52.862 63.3659 53.3538 63.9999C53.8271 64.6101 54.6603 64.6637 55.2518 64.1378M56.4199 59.0793L56.2595 57.1133C56.3844 56.5075 56.7976 56.0426 57.2947 55.8749M58.0512 59.3985L58.9782 57.6455C59.1546 56.7897 58.689 55.9769 57.9382 55.83C57.7787 55.7988 57.6191 55.8001 57.4651 55.8299M58.0225 59.5472L59.636 58.6289C60.4036 58.492 61.0867 59.0761 61.1618 59.9335C61.2369 60.7908 60.6757 61.5968 59.9081 61.7337L58.1858 61.4101M57.9467 61.6018L59.104 63.0224C59.3992 63.8029 59.0608 64.7439 58.3483 65.1242C57.9673 65.3276 57.5563 65.3295 57.2113 65.1677C56.9113 65.0271 56.6612 64.7627 56.5239 64.3997L56.3986 62.4281M11.6867 57.7866L10.311 56.617C9.9079 55.9225 10.1408 54.9795 10.8311 54.5107C11.5214 54.0418 12.4076 54.2246 12.8107 54.9191L13.1866 56.7678M11.7261 59.4341L10.1164 60.4571C9.32924 60.6566 8.5784 60.1586 8.43922 59.3448C8.30004 58.531 8.82524 57.7095 9.61242 57.51L11.4237 57.6658M13.3484 56.6973L13.441 56.4772M14.6225 57.8447L16.2276 56.8133C16.7709 56.1627 16.7358 55.2073 16.1495 54.6792C15.5631 54.1512 14.6474 54.2504 14.1041 54.9011L13.441 56.4772M14.5298 57.9588L16.3521 58.0197C17.0824 58.3098 17.4108 59.1822 17.0857 59.9683C16.7606 60.7544 15.9051 61.1566 15.1749 60.8665L13.8235 59.6669M13.5281 59.7062L13.8883 61.5594C13.8481 61.9 13.7044 62.2078 13.4946 62.4497M11.8046 59.6001L11.0158 61.3825C10.9171 62.219 11.4802 62.9367 12.2734 62.9855C12.7436 63.0145 13.1892 62.8019 13.4946 62.4497M39.574 1.53961C43.0185 1.74193 44.9474 1.85978 47.4305 3.96808C50.4367 4.5576 51.29 5.12628 51.9199 6.39655L52.1377 7.66273M39.574 1.53961C40.8113 12.6232 41.708 18.8887 45.747 30.6812M39.574 1.53961C35.5664 0.638158 33.2167 0.883276 28.9116 2.14673M28.9116 2.14673C24.7399 2.03188 22.2082 2.54769 17.1269 5.18231C17.5801 6.01815 18.045 6.85989 18.519 7.70465M28.9116 2.14673C33.0847 17.2841 36.2378 25.3932 44.6246 38.5737M49.114 17.9318C50.7081 36.7173 57.1311 42.3564 60.3376 51.3232M60.3376 81.679V84.1075M45.747 40.3951L47.4305 42.2164M46.8693 33.7168L47.9917 35.5382M15.0997 63.8531C15.0997 63.8531 16.8018 63.1055 17.8568 63.3737C19.7507 63.855 20.4035 67.8234 20.4035 67.8234C20.4035 67.8234 16.5602 68.4262 15.5249 66.7147C14.9481 65.7613 15.0997 63.8531 15.0997 63.8531ZM15.0997 63.8531L13.5147 64.6841M7.02566 69.3338L6.05318 69.9987C5.55846 70.6505 5.68261 71.5822 6.33039 72.0798C6.54087 72.2415 6.78075 72.3375 7.02566 72.3711M7.02566 69.3338V68.7385M7.02566 72.3711V87.1431M7.02566 68.7385L5.74632 68.6976C4.98159 68.4138 4.59046 67.5601 4.87258 66.7908C5.1547 66.0215 6.00324 65.6279 6.76797 65.9117L7.02566 66.1193M7.02566 66.1193V30.3422M13.441 56.4772L13.1986 29.467C13.1986 27.7561 13.4709 26.0986 13.9811 24.5231M13.4946 62.4497L13.5147 64.6841M13.5347 66.9185L13.5147 64.6841M13.5491 68.5268L13.7162 87.1431M7.03212 24.7479C6.51231 24.9453 5.90802 25.2494 5.56349 25.6774C4.32182 27.2198 5.90093 31.0582 5.90093 31.0582C5.90093 31.0582 6.4096 30.7917 7.02566 30.3422M7.03212 24.7479C7.55594 24.5489 7.99398 24.4582 7.99398 24.4582C7.99398 24.4582 9.12089 26.0276 9.16863 27.199C9.22096 28.4827 7.99137 29.6374 7.02566 30.3422M7.03212 24.7479C7.0673 23.4728 7.24546 22.2245 7.55486 21.0121M7.55486 21.0121C7.13487 21.4813 6.22013 22.4114 5.39291 22.6306C3.38582 23.1625 1 19.7466 1 19.7466C1 19.7466 4.36939 17.172 6.1118 18.2522C6.87093 18.7228 7.46856 19.9784 7.69298 20.5034M7.55486 21.0121C7.70256 20.8472 7.78908 20.7392 7.78908 20.7392C7.78908 20.7392 7.75552 20.6496 7.69298 20.5034M7.69298 20.5034C8.04499 19.2805 8.53109 18.096 9.13892 16.9593M9.13892 16.9593C8.26805 16.1768 7.90411 14.8633 8.31983 13.6542C8.8488 12.1156 10.4398 11.3284 11.8737 11.8961L12.4279 12.4349M12.4279 12.4349C12.865 11.9726 13.3253 11.524 13.8073 11.0898M13.8073 11.0898C13.8552 9.49488 15.0751 8.2179 16.5729 8.2179C16.8704 8.2179 17.1569 8.26826 17.4255 8.36148M17.4255 8.36148C17.7828 8.13596 18.1474 7.91694 18.519 7.70465M18.519 7.70465C19.4448 9.35435 20.4054 11.0155 21.3821 12.6666M22.6098 5.75461C22.755 5.69779 22.9008 5.6419 23.0474 5.58694M52.1377 7.66273C59.1568 11.6458 63.7047 18.0259 63.7047 25.2172V49.6113M52.1377 7.66273L54.1866 19.5775M13.9811 24.5231C14.3426 24.3274 14.6696 24.0431 14.9318 23.6745L15.9886 20.3725M15.9886 20.3725C16.0559 20.2704 16.1243 20.1689 16.1938 20.068M21.3821 12.6666L21.4106 12.6449C22.3916 12.3249 23.41 12.618 24.1084 13.3193C24.4511 13.6634 24.7167 14.1058 24.863 14.6223C25.1544 15.6509 24.9003 16.718 24.2786 17.4655M24.2786 17.4655C30.3299 27.3084 33.401 32.5026 37.8905 38.5737C42.1616 44.3497 50.5471 50.0981 57.3227 52.7608M54.1866 19.5775C54.1866 19.5775 54.3962 27.8913 56.4094 32.5026C56.7912 33.3772 57.4849 34.6843 57.4849 34.6843M54.1866 19.5775C56.3075 22.4512 57.5317 25.8392 57.5317 29.467L57.4849 34.6843M58.7119 53.1445H58.3483C58.0112 53.025 57.669 52.8969 57.3227 52.7608M58.7119 53.1445C58.7119 53.1445 58.4326 53.6879 58.2594 54.0394C57.9762 54.6137 57.7119 55.2116 57.4651 55.8299M57.4651 55.8299C57.4074 55.841 57.3505 55.856 57.2947 55.8749M55.2518 64.1378C54.9674 65.823 54.753 67.5415 54.5945 69.2501M54.5945 69.2501C54.8106 68.6463 55.1342 68.1088 55.6182 67.8937C56.0701 67.6929 56.7287 67.7434 57.1876 67.8171C57.4994 67.8672 57.7191 67.9281 57.7191 67.9281C57.7191 67.9281 58.0219 69.3904 57.6873 70.2009C57.5779 70.4657 57.3917 70.6824 57.1603 70.8597C56.3432 71.4857 54.9619 71.6213 54.4066 71.6506M54.5945 69.2501C54.2025 70.3455 54.1646 71.6588 54.1646 71.6588C54.1646 71.6588 54.2547 71.6587 54.4066 71.6506M54.4066 71.6506C53.9958 78.0196 54.2853 83.9574 54.5166 87.1431M57.2947 55.8749L57.3227 52.7608M56.9923 89.5715L56.9705 92H63.7047V89.5715M56.9923 89.5715H54.7258C54.7258 89.5715 54.6279 88.6759 54.5166 87.1431M56.9923 89.5715H63.7047M63.7047 89.5715H65.7621C65.7404 88.7466 65.7193 87.9376 65.6988 87.1431M65.3683 51.9716C65.3745 51.5567 65.3812 51.1383 65.3882 50.7161L57.4849 34.6843M65.3038 57.9452C65.2953 59.2839 65.2912 60.5961 65.2912 61.8929M65.319 67.8162C65.3209 68.0188 65.3229 68.2215 65.3249 68.4243M65.3249 68.4243L65.9615 69.5871C66.108 70.2723 65.8485 70.9672 65.3604 71.3281M65.3604 71.3281C65.4298 76.2246 65.5478 81.2929 65.6988 87.1431M1.41387 87.1431H7.02566M7.02566 87.1431V92H13.7598L13.7162 87.1431M13.7162 87.1431H54.5166M65.6988 87.1431H71M23.2998 92H48.5529M25.9331 7.073C26.0569 7.88197 25.5055 8.65455 24.7013 8.7986C23.8972 8.94266 23.145 8.40364 23.0212 7.59467C22.8973 6.7857 23.4488 6.01312 24.2529 5.86906C25.057 5.72501 25.8093 6.26403 25.9331 7.073ZM64.6232 53.956C64.6232 54.776 63.9624 55.4407 63.1474 55.4407C62.3323 55.4407 61.6716 54.776 61.6716 53.956C61.6716 53.136 62.3323 52.4713 63.1474 52.4713C63.9624 52.4713 64.6232 53.136 64.6232 53.956ZM10.75 68.5268C10.75 69.3468 10.0893 70.0115 9.27425 70.0115C8.45919 70.0115 7.79845 69.3468 7.79845 68.5268C7.79845 67.7068 8.45919 67.0421 9.27425 67.0421C10.0893 67.0421 10.75 67.7068 10.75 68.5268ZM63.9461 68.2857C63.1891 68.2462 62.6072 67.5001 62.6465 66.6194C62.6789 65.8924 63.1244 65.3009 63.7047 65.1387C63.8275 65.1044 63.9563 65.0893 64.0885 65.0962C64.8455 65.1358 65.4274 65.8818 65.3881 66.7626C65.3488 67.6433 64.7032 68.3253 63.9461 68.2857ZM57.5575 59.2289C58.2245 59.6184 58.4514 60.5632 58.0642 61.3392C57.6771 62.1151 56.8226 62.4284 56.1556 62.0389C55.4886 61.6495 55.2617 60.7047 55.6489 59.9287C56.036 59.1528 56.8905 58.8395 57.5575 59.2289ZM14.2702 57.434C14.6732 58.1284 14.4403 59.0715 13.75 59.5404C13.0597 60.0092 12.1734 59.8264 11.7704 59.1319C11.3674 58.4374 11.6003 57.4944 12.2906 57.0255C12.9809 56.5566 13.8672 56.7395 14.2702 57.434ZM69.2547 44.9809C69.2547 44.9809 66.4152 45.7264 66.1473 47.2933C65.9981 48.1662 66.61 49.5106 66.61 49.5106C66.61 49.5106 67.995 49.5308 68.6595 49.01C69.8523 48.0752 69.2547 44.9809 69.2547 44.9809Z" stroke="black"/>
</svg>
