<svg width="93" height="73" viewBox="0 0 93 73" fill="none" xmlns="http://www.w3.org/2000/svg">
<path d="M6.05556 68.0556H12.375M4.79167 72H70.5139C71.9099 72 73.0417 70.9909 73.0417 69.746V33.6825C73.0417 32.4377 71.9099 31.4286 70.5139 31.4286H4.79167C3.39561 31.4286 2.26389 32.4377 2.26389 33.6825V69.746C2.26389 70.9909 3.39561 72 4.79167 72ZM73.0417 43.2619L88.8978 39.9629C90.4833 39.633 92 40.7062 92 42.1579V61.3617C92 62.7841 90.5406 63.8509 88.9765 63.5719L73.0417 60.7302V43.2619ZM7.31944 64.1111H11.1111C11.8091 64.1111 12.375 63.6065 12.375 62.9841V59.6032C12.375 58.9808 11.8091 58.4762 11.1111 58.4762H7.31944C6.62142 58.4762 6.05556 58.9808 6.05556 59.6032V62.9841C6.05556 63.6065 6.62142 64.1111 7.31944 64.1111ZM25.0139 61.8571H60.4028C61.7988 61.8571 62.9306 60.848 62.9306 59.6032V39.3175C62.9306 38.0726 61.7988 37.0635 60.4028 37.0635H25.0139C23.6178 37.0635 22.4861 38.0726 22.4861 39.3175V59.6032C22.4861 60.848 23.6178 61.8571 25.0139 61.8571ZM31.3333 17.9048C31.3333 25.3738 24.543 31.4286 16.1667 31.4286C7.79035 31.4286 1 25.3738 1 17.9048C1 10.4358 7.79035 4.38095 16.1667 4.38095C24.543 4.38095 31.3333 10.4358 31.3333 17.9048ZM26.2778 17.9048C26.2778 22.8841 21.7509 26.9206 16.1667 26.9206C10.5825 26.9206 6.05556 22.8841 6.05556 17.9048C6.05556 12.9254 10.5825 8.88889 16.1667 8.88889C21.7509 8.88889 26.2778 12.9254 26.2778 17.9048ZM61.6667 16.2143C61.6667 22.1272 56.291 26.9206 49.6597 26.9206C43.0285 26.9206 37.6528 22.1272 37.6528 16.2143C37.6528 10.3013 43.0285 5.50794 49.6597 5.50794C56.291 5.50794 61.6667 10.3013 61.6667 16.2143ZM66.7222 16.2143C66.7222 24.6169 59.0831 31.4286 49.6597 31.4286C40.2364 31.4286 32.5972 24.6169 32.5972 16.2143C32.5972 7.81167 40.2364 1 49.6597 1C59.0831 1 66.7222 7.81167 66.7222 16.2143Z" stroke="black"/>
</svg>
